<svg width="1712" height="535" viewBox="0 0 1712 535" fill="none" xmlns="http://www.w3.org/2000/svg">
<g filter="url(#filter0_d_339_273)">
<path d="M100 105L150.4 152.812C200.8 200.624 301.6 296.249 402.4 320.155C503.2 344.061 604 296.249 704.8 240.518C805.6 184.189 906.4 121.435 1007.2 136.825C1108 152.812 1208.8 248.437 1309.6 280.262C1410.4 312.684 1511.2 279.813 1561.6 264.424L1612 248.437V439.686H1561.6C1511.2 439.686 1410.4 439.686 1309.6 439.686C1208.8 439.686 1108 439.686 1007.2 439.686C906.4 439.686 805.6 439.686 704.8 439.686C604 439.686 503.2 439.686 402.4 439.686C301.6 439.686 200.8 439.686 150.4 439.686H100V105Z" fill="#F2F6FF"/>
</g>
<defs>
<filter id="filter0_d_339_273" x="0" y="0" width="1712" height="534.686" filterUnits="userSpaceOnUse" color-interpolation-filters="sRGB">
<feFlood flood-opacity="0" result="BackgroundImageFix"/>
<feColorMatrix in="SourceAlpha" type="matrix" values="0 0 0 0 0 0 0 0 0 0 0 0 0 0 0 0 0 0 127 0" result="hardAlpha"/>
<feOffset dy="-5"/>
<feGaussianBlur stdDeviation="50"/>
<feComposite in2="hardAlpha" operator="out"/>
<feColorMatrix type="matrix" values="0 0 0 0 0 0 0 0 0 0 0 0 0 0 0 0 0 0 0.25 0"/>
<feBlend mode="normal" in2="BackgroundImageFix" result="effect1_dropShadow_339_273"/>
<feBlend mode="normal" in="SourceGraphic" in2="effect1_dropShadow_339_273" result="shape"/>
</filter>
</defs>
</svg>
