<svg width="327" height="327" viewBox="0 0 327 327" fill="none" xmlns="http://www.w3.org/2000/svg">
<g clip-path="url(#clip0_628_3060)">
<g clip-path="url(#clip1_628_3060)">
<g clip-path="url(#clip2_628_3060)">
<path d="M250.75 196.273C250.091 196.273 249.526 196.043 249.054 195.582C248.588 195.116 248.358 194.551 248.364 193.886C248.358 193.239 248.588 192.685 249.054 192.224C249.526 191.764 250.091 191.534 250.75 191.534C251.375 191.534 251.926 191.764 252.403 192.224C252.886 192.685 253.131 193.239 253.136 193.886C253.131 194.33 253.014 194.733 252.787 195.097C252.565 195.455 252.276 195.741 251.918 195.957C251.56 196.168 251.17 196.273 250.75 196.273ZM261.672 196.273C261.013 196.273 260.447 196.043 259.976 195.582C259.51 195.116 259.28 194.551 259.286 193.886C259.28 193.239 259.51 192.685 259.976 192.224C260.447 191.764 261.013 191.534 261.672 191.534C262.297 191.534 262.848 191.764 263.325 192.224C263.808 192.685 264.053 193.239 264.058 193.886C264.053 194.33 263.936 194.733 263.709 195.097C263.487 195.455 263.197 195.741 262.839 195.957C262.482 196.168 262.092 196.273 261.672 196.273ZM272.594 196.273C271.935 196.273 271.369 196.043 270.898 195.582C270.432 195.116 270.202 194.551 270.207 193.886C270.202 193.239 270.432 192.685 270.898 192.224C271.369 191.764 271.935 191.534 272.594 191.534C273.219 191.534 273.77 191.764 274.247 192.224C274.73 192.685 274.974 193.239 274.98 193.886C274.974 194.33 274.858 194.733 274.631 195.097C274.409 195.455 274.119 195.741 273.761 195.957C273.403 196.168 273.014 196.273 272.594 196.273ZM283.516 196.273C282.857 196.273 282.291 196.043 281.82 195.582C281.354 195.116 281.124 194.551 281.129 193.886C281.124 193.239 281.354 192.685 281.82 192.224C282.291 191.764 282.857 191.534 283.516 191.534C284.141 191.534 284.692 191.764 285.169 192.224C285.652 192.685 285.896 193.239 285.902 193.886C285.896 194.33 285.78 194.733 285.553 195.097C285.331 195.455 285.041 195.741 284.683 195.957C284.325 196.168 283.936 196.273 283.516 196.273ZM294.438 196.273C293.778 196.273 293.213 196.043 292.741 195.582C292.276 195.116 292.045 194.551 292.051 193.886C292.045 193.239 292.276 192.685 292.741 192.224C293.213 191.764 293.778 191.534 294.438 191.534C295.062 191.534 295.614 191.764 296.091 192.224C296.574 192.685 296.818 193.239 296.824 193.886C296.818 194.33 296.702 194.733 296.474 195.097C296.253 195.455 295.963 195.741 295.605 195.957C295.247 196.168 294.858 196.273 294.438 196.273ZM305.359 196.273C304.7 196.273 304.135 196.043 303.663 195.582C303.197 195.116 302.967 194.551 302.973 193.886C302.967 193.239 303.197 192.685 303.663 192.224C304.135 191.764 304.7 191.534 305.359 191.534C305.984 191.534 306.536 191.764 307.013 192.224C307.496 192.685 307.74 193.239 307.746 193.886C307.74 194.33 307.624 194.733 307.396 195.097C307.175 195.455 306.885 195.741 306.527 195.957C306.169 196.168 305.78 196.273 305.359 196.273ZM316.281 196.273C315.622 196.273 315.057 196.043 314.585 195.582C314.119 195.116 313.889 194.551 313.895 193.886C313.889 193.239 314.119 192.685 314.585 192.224C315.057 191.764 315.622 191.534 316.281 191.534C316.906 191.534 317.457 191.764 317.935 192.224C318.418 192.685 318.662 193.239 318.668 193.886C318.662 194.33 318.545 194.733 318.318 195.097C318.097 195.455 317.807 195.741 317.449 195.957C317.091 196.168 316.702 196.273 316.281 196.273Z" fill="#9155F6"/>
<path d="M250.75 211.273C250.091 211.273 249.526 211.043 249.054 210.582C248.588 210.116 248.358 209.551 248.364 208.886C248.358 208.239 248.588 207.685 249.054 207.224C249.526 206.764 250.091 206.534 250.75 206.534C251.375 206.534 251.926 206.764 252.403 207.224C252.886 207.685 253.131 208.239 253.136 208.886C253.131 209.33 253.014 209.733 252.787 210.097C252.565 210.455 252.276 210.741 251.918 210.957C251.56 211.168 251.17 211.273 250.75 211.273ZM261.672 211.273C261.013 211.273 260.447 211.043 259.976 210.582C259.51 210.116 259.28 209.551 259.286 208.886C259.28 208.239 259.51 207.685 259.976 207.224C260.447 206.764 261.013 206.534 261.672 206.534C262.297 206.534 262.848 206.764 263.325 207.224C263.808 207.685 264.053 208.239 264.058 208.886C264.053 209.33 263.936 209.733 263.709 210.097C263.487 210.455 263.197 210.741 262.839 210.957C262.482 211.168 262.092 211.273 261.672 211.273ZM272.594 211.273C271.935 211.273 271.369 211.043 270.898 210.582C270.432 210.116 270.202 209.551 270.207 208.886C270.202 208.239 270.432 207.685 270.898 207.224C271.369 206.764 271.935 206.534 272.594 206.534C273.219 206.534 273.77 206.764 274.247 207.224C274.73 207.685 274.974 208.239 274.98 208.886C274.974 209.33 274.858 209.733 274.631 210.097C274.409 210.455 274.119 210.741 273.761 210.957C273.403 211.168 273.014 211.273 272.594 211.273ZM283.516 211.273C282.857 211.273 282.291 211.043 281.82 210.582C281.354 210.116 281.124 209.551 281.129 208.886C281.124 208.239 281.354 207.685 281.82 207.224C282.291 206.764 282.857 206.534 283.516 206.534C284.141 206.534 284.692 206.764 285.169 207.224C285.652 207.685 285.896 208.239 285.902 208.886C285.896 209.33 285.78 209.733 285.553 210.097C285.331 210.455 285.041 210.741 284.683 210.957C284.325 211.168 283.936 211.273 283.516 211.273ZM294.438 211.273C293.778 211.273 293.213 211.043 292.741 210.582C292.276 210.116 292.045 209.551 292.051 208.886C292.045 208.239 292.276 207.685 292.741 207.224C293.213 206.764 293.778 206.534 294.438 206.534C295.062 206.534 295.614 206.764 296.091 207.224C296.574 207.685 296.818 208.239 296.824 208.886C296.818 209.33 296.702 209.733 296.474 210.097C296.253 210.455 295.963 210.741 295.605 210.957C295.247 211.168 294.858 211.273 294.438 211.273ZM305.359 211.273C304.7 211.273 304.135 211.043 303.663 210.582C303.197 210.116 302.967 209.551 302.973 208.886C302.967 208.239 303.197 207.685 303.663 207.224C304.135 206.764 304.7 206.534 305.359 206.534C305.984 206.534 306.536 206.764 307.013 207.224C307.496 207.685 307.74 208.239 307.746 208.886C307.74 209.33 307.624 209.733 307.396 210.097C307.175 210.455 306.885 210.741 306.527 210.957C306.169 211.168 305.78 211.273 305.359 211.273ZM316.281 211.273C315.622 211.273 315.057 211.043 314.585 210.582C314.119 210.116 313.889 209.551 313.895 208.886C313.889 208.239 314.119 207.685 314.585 207.224C315.057 206.764 315.622 206.534 316.281 206.534C316.906 206.534 317.457 206.764 317.935 207.224C318.418 207.685 318.662 208.239 318.668 208.886C318.662 209.33 318.545 209.733 318.318 210.097C318.097 210.455 317.807 210.741 317.449 210.957C317.091 211.168 316.702 211.273 316.281 211.273Z" fill="#9155F6"/>
<path d="M250.75 226.273C250.091 226.273 249.526 226.043 249.054 225.582C248.588 225.116 248.358 224.551 248.364 223.886C248.358 223.239 248.588 222.685 249.054 222.224C249.526 221.764 250.091 221.534 250.75 221.534C251.375 221.534 251.926 221.764 252.403 222.224C252.886 222.685 253.131 223.239 253.136 223.886C253.131 224.33 253.014 224.733 252.787 225.097C252.565 225.455 252.276 225.741 251.918 225.957C251.56 226.168 251.17 226.273 250.75 226.273ZM261.672 226.273C261.013 226.273 260.447 226.043 259.976 225.582C259.51 225.116 259.28 224.551 259.286 223.886C259.28 223.239 259.51 222.685 259.976 222.224C260.447 221.764 261.013 221.534 261.672 221.534C262.297 221.534 262.848 221.764 263.325 222.224C263.808 222.685 264.053 223.239 264.058 223.886C264.053 224.33 263.936 224.733 263.709 225.097C263.487 225.455 263.197 225.741 262.839 225.957C262.482 226.168 262.092 226.273 261.672 226.273ZM272.594 226.273C271.935 226.273 271.369 226.043 270.898 225.582C270.432 225.116 270.202 224.551 270.207 223.886C270.202 223.239 270.432 222.685 270.898 222.224C271.369 221.764 271.935 221.534 272.594 221.534C273.219 221.534 273.77 221.764 274.247 222.224C274.73 222.685 274.974 223.239 274.98 223.886C274.974 224.33 274.858 224.733 274.631 225.097C274.409 225.455 274.119 225.741 273.761 225.957C273.403 226.168 273.014 226.273 272.594 226.273ZM283.516 226.273C282.857 226.273 282.291 226.043 281.82 225.582C281.354 225.116 281.124 224.551 281.129 223.886C281.124 223.239 281.354 222.685 281.82 222.224C282.291 221.764 282.857 221.534 283.516 221.534C284.141 221.534 284.692 221.764 285.169 222.224C285.652 222.685 285.896 223.239 285.902 223.886C285.896 224.33 285.78 224.733 285.553 225.097C285.331 225.455 285.041 225.741 284.683 225.957C284.325 226.168 283.936 226.273 283.516 226.273ZM294.438 226.273C293.778 226.273 293.213 226.043 292.741 225.582C292.276 225.116 292.045 224.551 292.051 223.886C292.045 223.239 292.276 222.685 292.741 222.224C293.213 221.764 293.778 221.534 294.438 221.534C295.062 221.534 295.614 221.764 296.091 222.224C296.574 222.685 296.818 223.239 296.824 223.886C296.818 224.33 296.702 224.733 296.474 225.097C296.253 225.455 295.963 225.741 295.605 225.957C295.247 226.168 294.858 226.273 294.438 226.273ZM305.359 226.273C304.7 226.273 304.135 226.043 303.663 225.582C303.197 225.116 302.967 224.551 302.973 223.886C302.967 223.239 303.197 222.685 303.663 222.224C304.135 221.764 304.7 221.534 305.359 221.534C305.984 221.534 306.536 221.764 307.013 222.224C307.496 222.685 307.74 223.239 307.746 223.886C307.74 224.33 307.624 224.733 307.396 225.097C307.175 225.455 306.885 225.741 306.527 225.957C306.169 226.168 305.78 226.273 305.359 226.273ZM316.281 226.273C315.622 226.273 315.057 226.043 314.585 225.582C314.119 225.116 313.889 224.551 313.895 223.886C313.889 223.239 314.119 222.685 314.585 222.224C315.057 221.764 315.622 221.534 316.281 221.534C316.906 221.534 317.457 221.764 317.935 222.224C318.418 222.685 318.662 223.239 318.668 223.886C318.662 224.33 318.545 224.733 318.318 225.097C318.097 225.455 317.807 225.741 317.449 225.957C317.091 226.168 316.702 226.273 316.281 226.273Z" fill="#9155F6"/>
<path d="M250.75 240.273C250.091 240.273 249.526 240.043 249.054 239.582C248.588 239.116 248.358 238.551 248.364 237.886C248.358 237.239 248.588 236.685 249.054 236.224C249.526 235.764 250.091 235.534 250.75 235.534C251.375 235.534 251.926 235.764 252.403 236.224C252.886 236.685 253.131 237.239 253.136 237.886C253.131 238.33 253.014 238.733 252.787 239.097C252.565 239.455 252.276 239.741 251.918 239.957C251.56 240.168 251.17 240.273 250.75 240.273ZM261.672 240.273C261.013 240.273 260.447 240.043 259.976 239.582C259.51 239.116 259.28 238.551 259.286 237.886C259.28 237.239 259.51 236.685 259.976 236.224C260.447 235.764 261.013 235.534 261.672 235.534C262.297 235.534 262.848 235.764 263.325 236.224C263.808 236.685 264.053 237.239 264.058 237.886C264.053 238.33 263.936 238.733 263.709 239.097C263.487 239.455 263.197 239.741 262.839 239.957C262.482 240.168 262.092 240.273 261.672 240.273ZM272.594 240.273C271.935 240.273 271.369 240.043 270.898 239.582C270.432 239.116 270.202 238.551 270.207 237.886C270.202 237.239 270.432 236.685 270.898 236.224C271.369 235.764 271.935 235.534 272.594 235.534C273.219 235.534 273.77 235.764 274.247 236.224C274.73 236.685 274.974 237.239 274.98 237.886C274.974 238.33 274.858 238.733 274.631 239.097C274.409 239.455 274.119 239.741 273.761 239.957C273.403 240.168 273.014 240.273 272.594 240.273ZM283.516 240.273C282.857 240.273 282.291 240.043 281.82 239.582C281.354 239.116 281.124 238.551 281.129 237.886C281.124 237.239 281.354 236.685 281.82 236.224C282.291 235.764 282.857 235.534 283.516 235.534C284.141 235.534 284.692 235.764 285.169 236.224C285.652 236.685 285.896 237.239 285.902 237.886C285.896 238.33 285.78 238.733 285.553 239.097C285.331 239.455 285.041 239.741 284.683 239.957C284.325 240.168 283.936 240.273 283.516 240.273ZM294.438 240.273C293.778 240.273 293.213 240.043 292.741 239.582C292.276 239.116 292.045 238.551 292.051 237.886C292.045 237.239 292.276 236.685 292.741 236.224C293.213 235.764 293.778 235.534 294.438 235.534C295.062 235.534 295.614 235.764 296.091 236.224C296.574 236.685 296.818 237.239 296.824 237.886C296.818 238.33 296.702 238.733 296.474 239.097C296.253 239.455 295.963 239.741 295.605 239.957C295.247 240.168 294.858 240.273 294.438 240.273ZM305.359 240.273C304.7 240.273 304.135 240.043 303.663 239.582C303.197 239.116 302.967 238.551 302.973 237.886C302.967 237.239 303.197 236.685 303.663 236.224C304.135 235.764 304.7 235.534 305.359 235.534C305.984 235.534 306.536 235.764 307.013 236.224C307.496 236.685 307.74 237.239 307.746 237.886C307.74 238.33 307.624 238.733 307.396 239.097C307.175 239.455 306.885 239.741 306.527 239.957C306.169 240.168 305.78 240.273 305.359 240.273ZM316.281 240.273C315.622 240.273 315.057 240.043 314.585 239.582C314.119 239.116 313.889 238.551 313.895 237.886C313.889 237.239 314.119 236.685 314.585 236.224C315.057 235.764 315.622 235.534 316.281 235.534C316.906 235.534 317.457 235.764 317.935 236.224C318.418 236.685 318.662 237.239 318.668 237.886C318.662 238.33 318.545 238.733 318.318 239.097C318.097 239.455 317.807 239.741 317.449 239.957C317.091 240.168 316.702 240.273 316.281 240.273Z" fill="#9155F6"/>
<path d="M250.75 255.273C250.091 255.273 249.526 255.043 249.054 254.582C248.588 254.116 248.358 253.551 248.364 252.886C248.358 252.239 248.588 251.685 249.054 251.224C249.526 250.764 250.091 250.534 250.75 250.534C251.375 250.534 251.926 250.764 252.403 251.224C252.886 251.685 253.131 252.239 253.136 252.886C253.131 253.33 253.014 253.733 252.787 254.097C252.565 254.455 252.276 254.741 251.918 254.957C251.56 255.168 251.17 255.273 250.75 255.273ZM261.672 255.273C261.013 255.273 260.447 255.043 259.976 254.582C259.51 254.116 259.28 253.551 259.286 252.886C259.28 252.239 259.51 251.685 259.976 251.224C260.447 250.764 261.013 250.534 261.672 250.534C262.297 250.534 262.848 250.764 263.325 251.224C263.808 251.685 264.053 252.239 264.058 252.886C264.053 253.33 263.936 253.733 263.709 254.097C263.487 254.455 263.197 254.741 262.839 254.957C262.482 255.168 262.092 255.273 261.672 255.273ZM272.594 255.273C271.935 255.273 271.369 255.043 270.898 254.582C270.432 254.116 270.202 253.551 270.207 252.886C270.202 252.239 270.432 251.685 270.898 251.224C271.369 250.764 271.935 250.534 272.594 250.534C273.219 250.534 273.77 250.764 274.247 251.224C274.73 251.685 274.974 252.239 274.98 252.886C274.974 253.33 274.858 253.733 274.631 254.097C274.409 254.455 274.119 254.741 273.761 254.957C273.403 255.168 273.014 255.273 272.594 255.273ZM283.516 255.273C282.857 255.273 282.291 255.043 281.82 254.582C281.354 254.116 281.124 253.551 281.129 252.886C281.124 252.239 281.354 251.685 281.82 251.224C282.291 250.764 282.857 250.534 283.516 250.534C284.141 250.534 284.692 250.764 285.169 251.224C285.652 251.685 285.896 252.239 285.902 252.886C285.896 253.33 285.78 253.733 285.553 254.097C285.331 254.455 285.041 254.741 284.683 254.957C284.325 255.168 283.936 255.273 283.516 255.273ZM294.438 255.273C293.778 255.273 293.213 255.043 292.741 254.582C292.276 254.116 292.045 253.551 292.051 252.886C292.045 252.239 292.276 251.685 292.741 251.224C293.213 250.764 293.778 250.534 294.438 250.534C295.062 250.534 295.614 250.764 296.091 251.224C296.574 251.685 296.818 252.239 296.824 252.886C296.818 253.33 296.702 253.733 296.474 254.097C296.253 254.455 295.963 254.741 295.605 254.957C295.247 255.168 294.858 255.273 294.438 255.273ZM305.359 255.273C304.7 255.273 304.135 255.043 303.663 254.582C303.197 254.116 302.967 253.551 302.973 252.886C302.967 252.239 303.197 251.685 303.663 251.224C304.135 250.764 304.7 250.534 305.359 250.534C305.984 250.534 306.536 250.764 307.013 251.224C307.496 251.685 307.74 252.239 307.746 252.886C307.74 253.33 307.624 253.733 307.396 254.097C307.175 254.455 306.885 254.741 306.527 254.957C306.169 255.168 305.78 255.273 305.359 255.273ZM316.281 255.273C315.622 255.273 315.057 255.043 314.585 254.582C314.119 254.116 313.889 253.551 313.895 252.886C313.889 252.239 314.119 251.685 314.585 251.224C315.057 250.764 315.622 250.534 316.281 250.534C316.906 250.534 317.457 250.764 317.935 251.224C318.418 251.685 318.662 252.239 318.668 252.886C318.662 253.33 318.545 253.733 318.318 254.097C318.097 254.455 317.807 254.741 317.449 254.957C317.091 255.168 316.702 255.273 316.281 255.273Z" fill="#9155F6"/>
</g>
</g>
<g clip-path="url(#clip3_628_3060)">
<g clip-path="url(#clip4_628_3060)">
<path d="M7.78409 56.2727L7.78409 59.8182H-0.397727V56.2727H7.78409ZM19.1747 56.2727V59.8182H10.9929L10.9929 56.2727H19.1747ZM30.5653 56.2727V59.8182H22.3835V56.2727H30.5653ZM41.956 56.2727V59.8182H33.7741V56.2727H41.956ZM53.3466 56.2727V59.8182H45.1648V56.2727H53.3466ZM64.7372 56.2727V59.8182H56.5554V56.2727H64.7372Z" fill="#99B6FF"/>
<path d="M7.78409 71.2727L7.78409 74.8182H-0.397727V71.2727H7.78409ZM19.1747 71.2727V74.8182H10.9929L10.9929 71.2727H19.1747ZM30.5653 71.2727V74.8182H22.3835V71.2727H30.5653ZM41.956 71.2727V74.8182H33.7741V71.2727H41.956ZM53.3466 71.2727V74.8182H45.1648V71.2727H53.3466ZM64.7372 71.2727V74.8182H56.5554V71.2727H64.7372Z" fill="#99B6FF"/>
<path d="M7.78409 71.2727L7.78409 74.8182H-0.397727V71.2727H7.78409ZM19.1747 71.2727V74.8182H10.9929L10.9929 71.2727H19.1747ZM30.5653 71.2727V74.8182H22.3835V71.2727H30.5653ZM41.956 71.2727V74.8182H33.7741V71.2727H41.956ZM53.3466 71.2727V74.8182H45.1648V71.2727H53.3466ZM64.7372 71.2727V74.8182H56.5554V71.2727H64.7372Z" fill="#99B6FF"/>
<path d="M7.78409 86.2727L7.78409 89.8182H-0.397727V86.2727H7.78409ZM19.1747 86.2727V89.8182H10.9929L10.9929 86.2727H19.1747ZM30.5653 86.2727V89.8182H22.3835V86.2727H30.5653ZM41.956 86.2727V89.8182H33.7741V86.2727H41.956ZM53.3466 86.2727V89.8182H45.1648V86.2727H53.3466ZM64.7372 86.2727V89.8182H56.5554V86.2727H64.7372Z" fill="#99B6FF"/>
<path d="M7.78409 101.273L7.78409 104.818H-0.397727V101.273H7.78409ZM19.1747 101.273V104.818H10.9929L10.9929 101.273H19.1747ZM30.5653 101.273V104.818H22.3835V101.273H30.5653ZM41.956 101.273V104.818H33.7741V101.273H41.956ZM53.3466 101.273V104.818H45.1648V101.273H53.3466ZM64.7372 101.273V104.818H56.5554V101.273H64.7372Z" fill="#99B6FF"/>
</g>
</g>
<g clip-path="url(#clip5_628_3060)">
<path d="M257.75 5.27273C257.091 5.27273 256.526 5.04261 256.054 4.58239C255.588 4.11648 255.358 3.55114 255.364 2.88636C255.358 2.23864 255.588 1.68466 256.054 1.22443C256.526 0.764205 257.091 0.534091 257.75 0.534091C258.375 0.534091 258.926 0.764205 259.403 1.22443C259.886 1.68466 260.131 2.23864 260.136 2.88636C260.131 3.32955 260.014 3.73295 259.787 4.09659C259.565 4.45455 259.276 4.74148 258.918 4.95739C258.56 5.16761 258.17 5.27273 257.75 5.27273ZM268.672 5.27273C268.013 5.27273 267.447 5.04261 266.976 4.58239C266.51 4.11648 266.28 3.55114 266.286 2.88636C266.28 2.23864 266.51 1.68466 266.976 1.22443C267.447 0.764205 268.013 0.534091 268.672 0.534091C269.297 0.534091 269.848 0.764205 270.325 1.22443C270.808 1.68466 271.053 2.23864 271.058 2.88636C271.053 3.32955 270.936 3.73295 270.709 4.09659C270.487 4.45455 270.197 4.74148 269.839 4.95739C269.482 5.16761 269.092 5.27273 268.672 5.27273ZM279.594 5.27273C278.935 5.27273 278.369 5.04261 277.898 4.58239C277.432 4.11648 277.202 3.55114 277.207 2.88636C277.202 2.23864 277.432 1.68466 277.898 1.22443C278.369 0.764205 278.935 0.534091 279.594 0.534091C280.219 0.534091 280.77 0.764205 281.247 1.22443C281.73 1.68466 281.974 2.23864 281.98 2.88636C281.974 3.32955 281.858 3.73295 281.631 4.09659C281.409 4.45455 281.119 4.74148 280.761 4.95739C280.403 5.16761 280.014 5.27273 279.594 5.27273ZM290.516 5.27273C289.857 5.27273 289.291 5.04261 288.82 4.58239C288.354 4.11648 288.124 3.55114 288.129 2.88636C288.124 2.23864 288.354 1.68466 288.82 1.22443C289.291 0.764205 289.857 0.534091 290.516 0.534091C291.141 0.534091 291.692 0.764205 292.169 1.22443C292.652 1.68466 292.896 2.23864 292.902 2.88636C292.896 3.32955 292.78 3.73295 292.553 4.09659C292.331 4.45455 292.041 4.74148 291.683 4.95739C291.325 5.16761 290.936 5.27273 290.516 5.27273ZM301.438 5.27273C300.778 5.27273 300.213 5.04261 299.741 4.58239C299.276 4.11648 299.045 3.55114 299.051 2.88636C299.045 2.23864 299.276 1.68466 299.741 1.22443C300.213 0.764205 300.778 0.534091 301.438 0.534091C302.062 0.534091 302.614 0.764205 303.091 1.22443C303.574 1.68466 303.818 2.23864 303.824 2.88636C303.818 3.32955 303.702 3.73295 303.474 4.09659C303.253 4.45455 302.963 4.74148 302.605 4.95739C302.247 5.16761 301.858 5.27273 301.438 5.27273ZM312.359 5.27273C311.7 5.27273 311.135 5.04261 310.663 4.58239C310.197 4.11648 309.967 3.55114 309.973 2.88636C309.967 2.23864 310.197 1.68466 310.663 1.22443C311.135 0.764205 311.7 0.534091 312.359 0.534091C312.984 0.534091 313.536 0.764205 314.013 1.22443C314.496 1.68466 314.74 2.23864 314.746 2.88636C314.74 3.32955 314.624 3.73295 314.396 4.09659C314.175 4.45455 313.885 4.74148 313.527 4.95739C313.169 5.16761 312.78 5.27273 312.359 5.27273ZM323.281 5.27273C322.622 5.27273 322.057 5.04261 321.585 4.58239C321.119 4.11648 320.889 3.55114 320.895 2.88636C320.889 2.23864 321.119 1.68466 321.585 1.22443C322.057 0.764205 322.622 0.534091 323.281 0.534091C323.906 0.534091 324.457 0.764205 324.935 1.22443C325.418 1.68466 325.662 2.23864 325.668 2.88636C325.662 3.32955 325.545 3.73295 325.318 4.09659C325.097 4.45455 324.807 4.74148 324.449 4.95739C324.091 5.16761 323.702 5.27273 323.281 5.27273Z" fill="#366EFF"/>
<path d="M257.75 20.2727C257.091 20.2727 256.526 20.0426 256.054 19.5824C255.588 19.1165 255.358 18.5511 255.364 17.8864C255.358 17.2386 255.588 16.6847 256.054 16.2244C256.526 15.7642 257.091 15.5341 257.75 15.5341C258.375 15.5341 258.926 15.7642 259.403 16.2244C259.886 16.6847 260.131 17.2386 260.136 17.8864C260.131 18.3295 260.014 18.733 259.787 19.0966C259.565 19.4545 259.276 19.7415 258.918 19.9574C258.56 20.1676 258.17 20.2727 257.75 20.2727ZM268.672 20.2727C268.013 20.2727 267.447 20.0426 266.976 19.5824C266.51 19.1165 266.28 18.5511 266.286 17.8864C266.28 17.2386 266.51 16.6847 266.976 16.2244C267.447 15.7642 268.013 15.5341 268.672 15.5341C269.297 15.5341 269.848 15.7642 270.325 16.2244C270.808 16.6847 271.053 17.2386 271.058 17.8864C271.053 18.3295 270.936 18.733 270.709 19.0966C270.487 19.4545 270.197 19.7415 269.839 19.9574C269.482 20.1676 269.092 20.2727 268.672 20.2727ZM279.594 20.2727C278.935 20.2727 278.369 20.0426 277.898 19.5824C277.432 19.1165 277.202 18.5511 277.207 17.8864C277.202 17.2386 277.432 16.6847 277.898 16.2244C278.369 15.7642 278.935 15.5341 279.594 15.5341C280.219 15.5341 280.77 15.7642 281.247 16.2244C281.73 16.6847 281.974 17.2386 281.98 17.8864C281.974 18.3295 281.858 18.733 281.631 19.0966C281.409 19.4545 281.119 19.7415 280.761 19.9574C280.403 20.1676 280.014 20.2727 279.594 20.2727ZM290.516 20.2727C289.857 20.2727 289.291 20.0426 288.82 19.5824C288.354 19.1165 288.124 18.5511 288.129 17.8864C288.124 17.2386 288.354 16.6847 288.82 16.2244C289.291 15.7642 289.857 15.5341 290.516 15.5341C291.141 15.5341 291.692 15.7642 292.169 16.2244C292.652 16.6847 292.896 17.2386 292.902 17.8864C292.896 18.3295 292.78 18.733 292.553 19.0966C292.331 19.4545 292.041 19.7415 291.683 19.9574C291.325 20.1676 290.936 20.2727 290.516 20.2727ZM301.438 20.2727C300.778 20.2727 300.213 20.0426 299.741 19.5824C299.276 19.1165 299.045 18.5511 299.051 17.8864C299.045 17.2386 299.276 16.6847 299.741 16.2244C300.213 15.7642 300.778 15.5341 301.438 15.5341C302.062 15.5341 302.614 15.7642 303.091 16.2244C303.574 16.6847 303.818 17.2386 303.824 17.8864C303.818 18.3295 303.702 18.733 303.474 19.0966C303.253 19.4545 302.963 19.7415 302.605 19.9574C302.247 20.1676 301.858 20.2727 301.438 20.2727ZM312.359 20.2727C311.7 20.2727 311.135 20.0426 310.663 19.5824C310.197 19.1165 309.967 18.5511 309.973 17.8864C309.967 17.2386 310.197 16.6847 310.663 16.2244C311.135 15.7642 311.7 15.5341 312.359 15.5341C312.984 15.5341 313.536 15.7642 314.013 16.2244C314.496 16.6847 314.74 17.2386 314.746 17.8864C314.74 18.3295 314.624 18.733 314.396 19.0966C314.175 19.4545 313.885 19.7415 313.527 19.9574C313.169 20.1676 312.78 20.2727 312.359 20.2727ZM323.281 20.2727C322.622 20.2727 322.057 20.0426 321.585 19.5824C321.119 19.1165 320.889 18.5511 320.895 17.8864C320.889 17.2386 321.119 16.6847 321.585 16.2244C322.057 15.7642 322.622 15.5341 323.281 15.5341C323.906 15.5341 324.457 15.7642 324.935 16.2244C325.418 16.6847 325.662 17.2386 325.668 17.8864C325.662 18.3295 325.545 18.733 325.318 19.0966C325.097 19.4545 324.807 19.7415 324.449 19.9574C324.091 20.1676 323.702 20.2727 323.281 20.2727Z" fill="#366EFF"/>
<path d="M257.75 35.2727C257.091 35.2727 256.526 35.0426 256.054 34.5824C255.588 34.1165 255.358 33.5511 255.364 32.8864C255.358 32.2386 255.588 31.6847 256.054 31.2244C256.526 30.7642 257.091 30.5341 257.75 30.5341C258.375 30.5341 258.926 30.7642 259.403 31.2244C259.886 31.6847 260.131 32.2386 260.136 32.8864C260.131 33.3295 260.014 33.733 259.787 34.0966C259.565 34.4545 259.276 34.7415 258.918 34.9574C258.56 35.1676 258.17 35.2727 257.75 35.2727ZM268.672 35.2727C268.013 35.2727 267.447 35.0426 266.976 34.5824C266.51 34.1165 266.28 33.5511 266.286 32.8864C266.28 32.2386 266.51 31.6847 266.976 31.2244C267.447 30.7642 268.013 30.5341 268.672 30.5341C269.297 30.5341 269.848 30.7642 270.325 31.2244C270.808 31.6847 271.053 32.2386 271.058 32.8864C271.053 33.3295 270.936 33.733 270.709 34.0966C270.487 34.4545 270.197 34.7415 269.839 34.9574C269.482 35.1676 269.092 35.2727 268.672 35.2727ZM279.594 35.2727C278.935 35.2727 278.369 35.0426 277.898 34.5824C277.432 34.1165 277.202 33.5511 277.207 32.8864C277.202 32.2386 277.432 31.6847 277.898 31.2244C278.369 30.7642 278.935 30.5341 279.594 30.5341C280.219 30.5341 280.77 30.7642 281.247 31.2244C281.73 31.6847 281.974 32.2386 281.98 32.8864C281.974 33.3295 281.858 33.733 281.631 34.0966C281.409 34.4545 281.119 34.7415 280.761 34.9574C280.403 35.1676 280.014 35.2727 279.594 35.2727ZM290.516 35.2727C289.857 35.2727 289.291 35.0426 288.82 34.5824C288.354 34.1165 288.124 33.5511 288.129 32.8864C288.124 32.2386 288.354 31.6847 288.82 31.2244C289.291 30.7642 289.857 30.5341 290.516 30.5341C291.141 30.5341 291.692 30.7642 292.169 31.2244C292.652 31.6847 292.896 32.2386 292.902 32.8864C292.896 33.3295 292.78 33.733 292.553 34.0966C292.331 34.4545 292.041 34.7415 291.683 34.9574C291.325 35.1676 290.936 35.2727 290.516 35.2727ZM301.438 35.2727C300.778 35.2727 300.213 35.0426 299.741 34.5824C299.276 34.1165 299.045 33.5511 299.051 32.8864C299.045 32.2386 299.276 31.6847 299.741 31.2244C300.213 30.7642 300.778 30.5341 301.438 30.5341C302.062 30.5341 302.614 30.7642 303.091 31.2244C303.574 31.6847 303.818 32.2386 303.824 32.8864C303.818 33.3295 303.702 33.733 303.474 34.0966C303.253 34.4545 302.963 34.7415 302.605 34.9574C302.247 35.1676 301.858 35.2727 301.438 35.2727ZM312.359 35.2727C311.7 35.2727 311.135 35.0426 310.663 34.5824C310.197 34.1165 309.967 33.5511 309.973 32.8864C309.967 32.2386 310.197 31.6847 310.663 31.2244C311.135 30.7642 311.7 30.5341 312.359 30.5341C312.984 30.5341 313.536 30.7642 314.013 31.2244C314.496 31.6847 314.74 32.2386 314.746 32.8864C314.74 33.3295 314.624 33.733 314.396 34.0966C314.175 34.4545 313.885 34.7415 313.527 34.9574C313.169 35.1676 312.78 35.2727 312.359 35.2727ZM323.281 35.2727C322.622 35.2727 322.057 35.0426 321.585 34.5824C321.119 34.1165 320.889 33.5511 320.895 32.8864C320.889 32.2386 321.119 31.6847 321.585 31.2244C322.057 30.7642 322.622 30.5341 323.281 30.5341C323.906 30.5341 324.457 30.7642 324.935 31.2244C325.418 31.6847 325.662 32.2386 325.668 32.8864C325.662 33.3295 325.545 33.733 325.318 34.0966C325.097 34.4545 324.807 34.7415 324.449 34.9574C324.091 35.1676 323.702 35.2727 323.281 35.2727Z" fill="#366EFF"/>
<path d="M257.75 49.2727C257.091 49.2727 256.526 49.0426 256.054 48.5824C255.588 48.1165 255.358 47.5511 255.364 46.8864C255.358 46.2386 255.588 45.6847 256.054 45.2244C256.526 44.7642 257.091 44.5341 257.75 44.5341C258.375 44.5341 258.926 44.7642 259.403 45.2244C259.886 45.6847 260.131 46.2386 260.136 46.8864C260.131 47.3295 260.014 47.733 259.787 48.0966C259.565 48.4545 259.276 48.7415 258.918 48.9574C258.56 49.1676 258.17 49.2727 257.75 49.2727ZM268.672 49.2727C268.013 49.2727 267.447 49.0426 266.976 48.5824C266.51 48.1165 266.28 47.5511 266.286 46.8864C266.28 46.2386 266.51 45.6847 266.976 45.2244C267.447 44.7642 268.013 44.5341 268.672 44.5341C269.297 44.5341 269.848 44.7642 270.325 45.2244C270.808 45.6847 271.053 46.2386 271.058 46.8864C271.053 47.3295 270.936 47.733 270.709 48.0966C270.487 48.4545 270.197 48.7415 269.839 48.9574C269.482 49.1676 269.092 49.2727 268.672 49.2727ZM279.594 49.2727C278.935 49.2727 278.369 49.0426 277.898 48.5824C277.432 48.1165 277.202 47.5511 277.207 46.8864C277.202 46.2386 277.432 45.6847 277.898 45.2244C278.369 44.7642 278.935 44.5341 279.594 44.5341C280.219 44.5341 280.77 44.7642 281.247 45.2244C281.73 45.6847 281.974 46.2386 281.98 46.8864C281.974 47.3295 281.858 47.733 281.631 48.0966C281.409 48.4545 281.119 48.7415 280.761 48.9574C280.403 49.1676 280.014 49.2727 279.594 49.2727ZM290.516 49.2727C289.857 49.2727 289.291 49.0426 288.82 48.5824C288.354 48.1165 288.124 47.5511 288.129 46.8864C288.124 46.2386 288.354 45.6847 288.82 45.2244C289.291 44.7642 289.857 44.5341 290.516 44.5341C291.141 44.5341 291.692 44.7642 292.169 45.2244C292.652 45.6847 292.896 46.2386 292.902 46.8864C292.896 47.3295 292.78 47.733 292.553 48.0966C292.331 48.4545 292.041 48.7415 291.683 48.9574C291.325 49.1676 290.936 49.2727 290.516 49.2727ZM301.438 49.2727C300.778 49.2727 300.213 49.0426 299.741 48.5824C299.276 48.1165 299.045 47.5511 299.051 46.8864C299.045 46.2386 299.276 45.6847 299.741 45.2244C300.213 44.7642 300.778 44.5341 301.438 44.5341C302.062 44.5341 302.614 44.7642 303.091 45.2244C303.574 45.6847 303.818 46.2386 303.824 46.8864C303.818 47.3295 303.702 47.733 303.474 48.0966C303.253 48.4545 302.963 48.7415 302.605 48.9574C302.247 49.1676 301.858 49.2727 301.438 49.2727ZM312.359 49.2727C311.7 49.2727 311.135 49.0426 310.663 48.5824C310.197 48.1165 309.967 47.5511 309.973 46.8864C309.967 46.2386 310.197 45.6847 310.663 45.2244C311.135 44.7642 311.7 44.5341 312.359 44.5341C312.984 44.5341 313.536 44.7642 314.013 45.2244C314.496 45.6847 314.74 46.2386 314.746 46.8864C314.74 47.3295 314.624 47.733 314.396 48.0966C314.175 48.4545 313.885 48.7415 313.527 48.9574C313.169 49.1676 312.78 49.2727 312.359 49.2727ZM323.281 49.2727C322.622 49.2727 322.057 49.0426 321.585 48.5824C321.119 48.1165 320.889 47.5511 320.895 46.8864C320.889 46.2386 321.119 45.6847 321.585 45.2244C322.057 44.7642 322.622 44.5341 323.281 44.5341C323.906 44.5341 324.457 44.7642 324.935 45.2244C325.418 45.6847 325.662 46.2386 325.668 46.8864C325.662 47.3295 325.545 47.733 325.318 48.0966C325.097 48.4545 324.807 48.7415 324.449 48.9574C324.091 49.1676 323.702 49.2727 323.281 49.2727Z" fill="#366EFF"/>
<path d="M257.75 64.2727C257.091 64.2727 256.526 64.0426 256.054 63.5824C255.588 63.1165 255.358 62.5511 255.364 61.8864C255.358 61.2386 255.588 60.6847 256.054 60.2244C256.526 59.7642 257.091 59.5341 257.75 59.5341C258.375 59.5341 258.926 59.7642 259.403 60.2244C259.886 60.6847 260.131 61.2386 260.136 61.8864C260.131 62.3295 260.014 62.733 259.787 63.0966C259.565 63.4545 259.276 63.7415 258.918 63.9574C258.56 64.1676 258.17 64.2727 257.75 64.2727ZM268.672 64.2727C268.013 64.2727 267.447 64.0426 266.976 63.5824C266.51 63.1165 266.28 62.5511 266.286 61.8864C266.28 61.2386 266.51 60.6847 266.976 60.2244C267.447 59.7642 268.013 59.5341 268.672 59.5341C269.297 59.5341 269.848 59.7642 270.325 60.2244C270.808 60.6847 271.053 61.2386 271.058 61.8864C271.053 62.3295 270.936 62.733 270.709 63.0966C270.487 63.4545 270.197 63.7415 269.839 63.9574C269.482 64.1676 269.092 64.2727 268.672 64.2727ZM279.594 64.2727C278.935 64.2727 278.369 64.0426 277.898 63.5824C277.432 63.1165 277.202 62.5511 277.207 61.8864C277.202 61.2386 277.432 60.6847 277.898 60.2244C278.369 59.7642 278.935 59.5341 279.594 59.5341C280.219 59.5341 280.77 59.7642 281.247 60.2244C281.73 60.6847 281.974 61.2386 281.98 61.8864C281.974 62.3295 281.858 62.733 281.631 63.0966C281.409 63.4545 281.119 63.7415 280.761 63.9574C280.403 64.1676 280.014 64.2727 279.594 64.2727ZM290.516 64.2727C289.857 64.2727 289.291 64.0426 288.82 63.5824C288.354 63.1165 288.124 62.5511 288.129 61.8864C288.124 61.2386 288.354 60.6847 288.82 60.2244C289.291 59.7642 289.857 59.5341 290.516 59.5341C291.141 59.5341 291.692 59.7642 292.169 60.2244C292.652 60.6847 292.896 61.2386 292.902 61.8864C292.896 62.3295 292.78 62.733 292.553 63.0966C292.331 63.4545 292.041 63.7415 291.683 63.9574C291.325 64.1676 290.936 64.2727 290.516 64.2727ZM301.438 64.2727C300.778 64.2727 300.213 64.0426 299.741 63.5824C299.276 63.1165 299.045 62.5511 299.051 61.8864C299.045 61.2386 299.276 60.6847 299.741 60.2244C300.213 59.7642 300.778 59.5341 301.438 59.5341C302.062 59.5341 302.614 59.7642 303.091 60.2244C303.574 60.6847 303.818 61.2386 303.824 61.8864C303.818 62.3295 303.702 62.733 303.474 63.0966C303.253 63.4545 302.963 63.7415 302.605 63.9574C302.247 64.1676 301.858 64.2727 301.438 64.2727ZM312.359 64.2727C311.7 64.2727 311.135 64.0426 310.663 63.5824C310.197 63.1165 309.967 62.5511 309.973 61.8864C309.967 61.2386 310.197 60.6847 310.663 60.2244C311.135 59.7642 311.7 59.5341 312.359 59.5341C312.984 59.5341 313.536 59.7642 314.013 60.2244C314.496 60.6847 314.74 61.2386 314.746 61.8864C314.74 62.3295 314.624 62.733 314.396 63.0966C314.175 63.4545 313.885 63.7415 313.527 63.9574C313.169 64.1676 312.78 64.2727 312.359 64.2727ZM323.281 64.2727C322.622 64.2727 322.057 64.0426 321.585 63.5824C321.119 63.1165 320.889 62.5511 320.895 61.8864C320.889 61.2386 321.119 60.6847 321.585 60.2244C322.057 59.7642 322.622 59.5341 323.281 59.5341C323.906 59.5341 324.457 59.7642 324.935 60.2244C325.418 60.6847 325.662 61.2386 325.668 61.8864C325.662 62.3295 325.545 62.733 325.318 63.0966C325.097 63.4545 324.807 63.7415 324.449 63.9574C324.091 64.1676 323.702 64.2727 323.281 64.2727Z" fill="#366EFF"/>
<path d="M257.75 79.2727C257.091 79.2727 256.526 79.0426 256.054 78.5824C255.588 78.1165 255.358 77.5511 255.364 76.8864C255.358 76.2386 255.588 75.6847 256.054 75.2244C256.526 74.7642 257.091 74.5341 257.75 74.5341C258.375 74.5341 258.926 74.7642 259.403 75.2244C259.886 75.6847 260.131 76.2386 260.136 76.8864C260.131 77.3295 260.014 77.733 259.787 78.0966C259.565 78.4545 259.276 78.7415 258.918 78.9574C258.56 79.1676 258.17 79.2727 257.75 79.2727ZM268.672 79.2727C268.013 79.2727 267.447 79.0426 266.976 78.5824C266.51 78.1165 266.28 77.5511 266.286 76.8864C266.28 76.2386 266.51 75.6847 266.976 75.2244C267.447 74.7642 268.013 74.5341 268.672 74.5341C269.297 74.5341 269.848 74.7642 270.325 75.2244C270.808 75.6847 271.053 76.2386 271.058 76.8864C271.053 77.3295 270.936 77.733 270.709 78.0966C270.487 78.4545 270.197 78.7415 269.839 78.9574C269.482 79.1676 269.092 79.2727 268.672 79.2727ZM279.594 79.2727C278.935 79.2727 278.369 79.0426 277.898 78.5824C277.432 78.1165 277.202 77.5511 277.207 76.8864C277.202 76.2386 277.432 75.6847 277.898 75.2244C278.369 74.7642 278.935 74.5341 279.594 74.5341C280.219 74.5341 280.77 74.7642 281.247 75.2244C281.73 75.6847 281.974 76.2386 281.98 76.8864C281.974 77.3295 281.858 77.733 281.631 78.0966C281.409 78.4545 281.119 78.7415 280.761 78.9574C280.403 79.1676 280.014 79.2727 279.594 79.2727ZM290.516 79.2727C289.857 79.2727 289.291 79.0426 288.82 78.5824C288.354 78.1165 288.124 77.5511 288.129 76.8864C288.124 76.2386 288.354 75.6847 288.82 75.2244C289.291 74.7642 289.857 74.5341 290.516 74.5341C291.141 74.5341 291.692 74.7642 292.169 75.2244C292.652 75.6847 292.896 76.2386 292.902 76.8864C292.896 77.3295 292.78 77.733 292.553 78.0966C292.331 78.4545 292.041 78.7415 291.683 78.9574C291.325 79.1676 290.936 79.2727 290.516 79.2727ZM301.438 79.2727C300.778 79.2727 300.213 79.0426 299.741 78.5824C299.276 78.1165 299.045 77.5511 299.051 76.8864C299.045 76.2386 299.276 75.6847 299.741 75.2244C300.213 74.7642 300.778 74.5341 301.438 74.5341C302.062 74.5341 302.614 74.7642 303.091 75.2244C303.574 75.6847 303.818 76.2386 303.824 76.8864C303.818 77.3295 303.702 77.733 303.474 78.0966C303.253 78.4545 302.963 78.7415 302.605 78.9574C302.247 79.1676 301.858 79.2727 301.438 79.2727ZM312.359 79.2727C311.7 79.2727 311.135 79.0426 310.663 78.5824C310.197 78.1165 309.967 77.5511 309.973 76.8864C309.967 76.2386 310.197 75.6847 310.663 75.2244C311.135 74.7642 311.7 74.5341 312.359 74.5341C312.984 74.5341 313.536 74.7642 314.013 75.2244C314.496 75.6847 314.74 76.2386 314.746 76.8864C314.74 77.3295 314.624 77.733 314.396 78.0966C314.175 78.4545 313.885 78.7415 313.527 78.9574C313.169 79.1676 312.78 79.2727 312.359 79.2727ZM323.281 79.2727C322.622 79.2727 322.057 79.0426 321.585 78.5824C321.119 78.1165 320.889 77.5511 320.895 76.8864C320.889 76.2386 321.119 75.6847 321.585 75.2244C322.057 74.7642 322.622 74.5341 323.281 74.5341C323.906 74.5341 324.457 74.7642 324.935 75.2244C325.418 75.6847 325.662 76.2386 325.668 76.8864C325.662 77.3295 325.545 77.733 325.318 78.0966C325.097 78.4545 324.807 78.7415 324.449 78.9574C324.091 79.1676 323.702 79.2727 323.281 79.2727Z" fill="#366EFF"/>
</g>
<g clip-path="url(#clip6_628_3060)">
<path d="M3.75 253.273C3.09091 253.273 2.52557 253.043 2.05398 252.582C1.58807 252.116 1.35795 251.551 1.36364 250.886C1.35795 250.239 1.58807 249.685 2.05398 249.224C2.52557 248.764 3.09091 248.534 3.75 248.534C4.375 248.534 4.92614 248.764 5.40341 249.224C5.88636 249.685 6.13068 250.239 6.13636 250.886C6.13068 251.33 6.0142 251.733 5.78693 252.097C5.56534 252.455 5.27557 252.741 4.91761 252.957C4.55966 253.168 4.17045 253.273 3.75 253.273ZM14.6719 253.273C14.0128 253.273 13.4474 253.043 12.9759 252.582C12.5099 252.116 12.2798 251.551 12.2855 250.886C12.2798 250.239 12.5099 249.685 12.9759 249.224C13.4474 248.764 14.0128 248.534 14.6719 248.534C15.2969 248.534 15.848 248.764 16.3253 249.224C16.8082 249.685 17.0526 250.239 17.0582 250.886C17.0526 251.33 16.9361 251.733 16.7088 252.097C16.4872 252.455 16.1974 252.741 15.8395 252.957C15.4815 253.168 15.0923 253.273 14.6719 253.273ZM25.5938 253.273C24.9347 253.273 24.3693 253.043 23.8977 252.582C23.4318 252.116 23.2017 251.551 23.2074 250.886C23.2017 250.239 23.4318 249.685 23.8977 249.224C24.3693 248.764 24.9347 248.534 25.5938 248.534C26.2188 248.534 26.7699 248.764 27.2472 249.224C27.7301 249.685 27.9744 250.239 27.9801 250.886C27.9744 251.33 27.858 251.733 27.6307 252.097C27.4091 252.455 27.1193 252.741 26.7614 252.957C26.4034 253.168 26.0142 253.273 25.5938 253.273ZM36.5156 253.273C35.8565 253.273 35.2912 253.043 34.8196 252.582C34.3537 252.116 34.1236 251.551 34.1293 250.886C34.1236 250.239 34.3537 249.685 34.8196 249.224C35.2912 248.764 35.8565 248.534 36.5156 248.534C37.1406 248.534 37.6918 248.764 38.169 249.224C38.652 249.685 38.8963 250.239 38.902 250.886C38.8963 251.33 38.7798 251.733 38.5526 252.097C38.331 252.455 38.0412 252.741 37.6832 252.957C37.3253 253.168 36.9361 253.273 36.5156 253.273ZM47.4375 253.273C46.7784 253.273 46.2131 253.043 45.7415 252.582C45.2756 252.116 45.0455 251.551 45.0511 250.886C45.0455 250.239 45.2756 249.685 45.7415 249.224C46.2131 248.764 46.7784 248.534 47.4375 248.534C48.0625 248.534 48.6136 248.764 49.0909 249.224C49.5739 249.685 49.8182 250.239 49.8239 250.886C49.8182 251.33 49.7017 251.733 49.4744 252.097C49.2528 252.455 48.9631 252.741 48.6051 252.957C48.2472 253.168 47.858 253.273 47.4375 253.273ZM58.3594 253.273C57.7003 253.273 57.1349 253.043 56.6634 252.582C56.1974 252.116 55.9673 251.551 55.973 250.886C55.9673 250.239 56.1974 249.685 56.6634 249.224C57.1349 248.764 57.7003 248.534 58.3594 248.534C58.9844 248.534 59.5355 248.764 60.0128 249.224C60.4957 249.685 60.7401 250.239 60.7457 250.886C60.7401 251.33 60.6236 251.733 60.3963 252.097C60.1747 252.455 59.8849 252.741 59.527 252.957C59.169 253.168 58.7798 253.273 58.3594 253.273ZM69.2812 253.273C68.6222 253.273 68.0568 253.043 67.5852 252.582C67.1193 252.116 66.8892 251.551 66.8949 250.886C66.8892 250.239 67.1193 249.685 67.5852 249.224C68.0568 248.764 68.6222 248.534 69.2812 248.534C69.9062 248.534 70.4574 248.764 70.9347 249.224C71.4176 249.685 71.6619 250.239 71.6676 250.886C71.6619 251.33 71.5455 251.733 71.3182 252.097C71.0966 252.455 70.8068 252.741 70.4489 252.957C70.0909 253.168 69.7017 253.273 69.2812 253.273Z" fill="#9155F6"/>
<path d="M3.75 268.273C3.09091 268.273 2.52557 268.043 2.05398 267.582C1.58807 267.116 1.35795 266.551 1.36364 265.886C1.35795 265.239 1.58807 264.685 2.05398 264.224C2.52557 263.764 3.09091 263.534 3.75 263.534C4.375 263.534 4.92614 263.764 5.40341 264.224C5.88636 264.685 6.13068 265.239 6.13636 265.886C6.13068 266.33 6.0142 266.733 5.78693 267.097C5.56534 267.455 5.27557 267.741 4.91761 267.957C4.55966 268.168 4.17045 268.273 3.75 268.273ZM14.6719 268.273C14.0128 268.273 13.4474 268.043 12.9759 267.582C12.5099 267.116 12.2798 266.551 12.2855 265.886C12.2798 265.239 12.5099 264.685 12.9759 264.224C13.4474 263.764 14.0128 263.534 14.6719 263.534C15.2969 263.534 15.848 263.764 16.3253 264.224C16.8082 264.685 17.0526 265.239 17.0582 265.886C17.0526 266.33 16.9361 266.733 16.7088 267.097C16.4872 267.455 16.1974 267.741 15.8395 267.957C15.4815 268.168 15.0923 268.273 14.6719 268.273ZM25.5938 268.273C24.9347 268.273 24.3693 268.043 23.8977 267.582C23.4318 267.116 23.2017 266.551 23.2074 265.886C23.2017 265.239 23.4318 264.685 23.8977 264.224C24.3693 263.764 24.9347 263.534 25.5938 263.534C26.2188 263.534 26.7699 263.764 27.2472 264.224C27.7301 264.685 27.9744 265.239 27.9801 265.886C27.9744 266.33 27.858 266.733 27.6307 267.097C27.4091 267.455 27.1193 267.741 26.7614 267.957C26.4034 268.168 26.0142 268.273 25.5938 268.273ZM36.5156 268.273C35.8565 268.273 35.2912 268.043 34.8196 267.582C34.3537 267.116 34.1236 266.551 34.1293 265.886C34.1236 265.239 34.3537 264.685 34.8196 264.224C35.2912 263.764 35.8565 263.534 36.5156 263.534C37.1406 263.534 37.6918 263.764 38.169 264.224C38.652 264.685 38.8963 265.239 38.902 265.886C38.8963 266.33 38.7798 266.733 38.5526 267.097C38.331 267.455 38.0412 267.741 37.6832 267.957C37.3253 268.168 36.9361 268.273 36.5156 268.273ZM47.4375 268.273C46.7784 268.273 46.2131 268.043 45.7415 267.582C45.2756 267.116 45.0455 266.551 45.0511 265.886C45.0455 265.239 45.2756 264.685 45.7415 264.224C46.2131 263.764 46.7784 263.534 47.4375 263.534C48.0625 263.534 48.6136 263.764 49.0909 264.224C49.5739 264.685 49.8182 265.239 49.8239 265.886C49.8182 266.33 49.7017 266.733 49.4744 267.097C49.2528 267.455 48.9631 267.741 48.6051 267.957C48.2472 268.168 47.858 268.273 47.4375 268.273ZM58.3594 268.273C57.7003 268.273 57.1349 268.043 56.6634 267.582C56.1974 267.116 55.9673 266.551 55.973 265.886C55.9673 265.239 56.1974 264.685 56.6634 264.224C57.1349 263.764 57.7003 263.534 58.3594 263.534C58.9844 263.534 59.5355 263.764 60.0128 264.224C60.4957 264.685 60.7401 265.239 60.7457 265.886C60.7401 266.33 60.6236 266.733 60.3963 267.097C60.1747 267.455 59.8849 267.741 59.527 267.957C59.169 268.168 58.7798 268.273 58.3594 268.273ZM69.2812 268.273C68.6222 268.273 68.0568 268.043 67.5852 267.582C67.1193 267.116 66.8892 266.551 66.8949 265.886C66.8892 265.239 67.1193 264.685 67.5852 264.224C68.0568 263.764 68.6222 263.534 69.2812 263.534C69.9062 263.534 70.4574 263.764 70.9347 264.224C71.4176 264.685 71.6619 265.239 71.6676 265.886C71.6619 266.33 71.5455 266.733 71.3182 267.097C71.0966 267.455 70.8068 267.741 70.4489 267.957C70.0909 268.168 69.7017 268.273 69.2812 268.273Z" fill="#9155F6"/>
<path d="M3.75 283.273C3.09091 283.273 2.52557 283.043 2.05398 282.582C1.58807 282.116 1.35795 281.551 1.36364 280.886C1.35795 280.239 1.58807 279.685 2.05398 279.224C2.52557 278.764 3.09091 278.534 3.75 278.534C4.375 278.534 4.92614 278.764 5.40341 279.224C5.88636 279.685 6.13068 280.239 6.13636 280.886C6.13068 281.33 6.0142 281.733 5.78693 282.097C5.56534 282.455 5.27557 282.741 4.91761 282.957C4.55966 283.168 4.17045 283.273 3.75 283.273ZM14.6719 283.273C14.0128 283.273 13.4474 283.043 12.9759 282.582C12.5099 282.116 12.2798 281.551 12.2855 280.886C12.2798 280.239 12.5099 279.685 12.9759 279.224C13.4474 278.764 14.0128 278.534 14.6719 278.534C15.2969 278.534 15.848 278.764 16.3253 279.224C16.8082 279.685 17.0526 280.239 17.0582 280.886C17.0526 281.33 16.9361 281.733 16.7088 282.097C16.4872 282.455 16.1974 282.741 15.8395 282.957C15.4815 283.168 15.0923 283.273 14.6719 283.273ZM25.5938 283.273C24.9347 283.273 24.3693 283.043 23.8977 282.582C23.4318 282.116 23.2017 281.551 23.2074 280.886C23.2017 280.239 23.4318 279.685 23.8977 279.224C24.3693 278.764 24.9347 278.534 25.5938 278.534C26.2188 278.534 26.7699 278.764 27.2472 279.224C27.7301 279.685 27.9744 280.239 27.9801 280.886C27.9744 281.33 27.858 281.733 27.6307 282.097C27.4091 282.455 27.1193 282.741 26.7614 282.957C26.4034 283.168 26.0142 283.273 25.5938 283.273ZM36.5156 283.273C35.8565 283.273 35.2912 283.043 34.8196 282.582C34.3537 282.116 34.1236 281.551 34.1293 280.886C34.1236 280.239 34.3537 279.685 34.8196 279.224C35.2912 278.764 35.8565 278.534 36.5156 278.534C37.1406 278.534 37.6918 278.764 38.169 279.224C38.652 279.685 38.8963 280.239 38.902 280.886C38.8963 281.33 38.7798 281.733 38.5526 282.097C38.331 282.455 38.0412 282.741 37.6832 282.957C37.3253 283.168 36.9361 283.273 36.5156 283.273ZM47.4375 283.273C46.7784 283.273 46.2131 283.043 45.7415 282.582C45.2756 282.116 45.0455 281.551 45.0511 280.886C45.0455 280.239 45.2756 279.685 45.7415 279.224C46.2131 278.764 46.7784 278.534 47.4375 278.534C48.0625 278.534 48.6136 278.764 49.0909 279.224C49.5739 279.685 49.8182 280.239 49.8239 280.886C49.8182 281.33 49.7017 281.733 49.4744 282.097C49.2528 282.455 48.9631 282.741 48.6051 282.957C48.2472 283.168 47.858 283.273 47.4375 283.273ZM58.3594 283.273C57.7003 283.273 57.1349 283.043 56.6634 282.582C56.1974 282.116 55.9673 281.551 55.973 280.886C55.9673 280.239 56.1974 279.685 56.6634 279.224C57.1349 278.764 57.7003 278.534 58.3594 278.534C58.9844 278.534 59.5355 278.764 60.0128 279.224C60.4957 279.685 60.7401 280.239 60.7457 280.886C60.7401 281.33 60.6236 281.733 60.3963 282.097C60.1747 282.455 59.8849 282.741 59.527 282.957C59.169 283.168 58.7798 283.273 58.3594 283.273ZM69.2812 283.273C68.6222 283.273 68.0568 283.043 67.5852 282.582C67.1193 282.116 66.8892 281.551 66.8949 280.886C66.8892 280.239 67.1193 279.685 67.5852 279.224C68.0568 278.764 68.6222 278.534 69.2812 278.534C69.9062 278.534 70.4574 278.764 70.9347 279.224C71.4176 279.685 71.6619 280.239 71.6676 280.886C71.6619 281.33 71.5455 281.733 71.3182 282.097C71.0966 282.455 70.8068 282.741 70.4489 282.957C70.0909 283.168 69.7017 283.273 69.2812 283.273Z" fill="#9155F6"/>
<path d="M3.75 297.273C3.09091 297.273 2.52557 297.043 2.05398 296.582C1.58807 296.116 1.35795 295.551 1.36364 294.886C1.35795 294.239 1.58807 293.685 2.05398 293.224C2.52557 292.764 3.09091 292.534 3.75 292.534C4.375 292.534 4.92614 292.764 5.40341 293.224C5.88636 293.685 6.13068 294.239 6.13636 294.886C6.13068 295.33 6.0142 295.733 5.78693 296.097C5.56534 296.455 5.27557 296.741 4.91761 296.957C4.55966 297.168 4.17045 297.273 3.75 297.273ZM14.6719 297.273C14.0128 297.273 13.4474 297.043 12.9759 296.582C12.5099 296.116 12.2798 295.551 12.2855 294.886C12.2798 294.239 12.5099 293.685 12.9759 293.224C13.4474 292.764 14.0128 292.534 14.6719 292.534C15.2969 292.534 15.848 292.764 16.3253 293.224C16.8082 293.685 17.0526 294.239 17.0582 294.886C17.0526 295.33 16.9361 295.733 16.7088 296.097C16.4872 296.455 16.1974 296.741 15.8395 296.957C15.4815 297.168 15.0923 297.273 14.6719 297.273ZM25.5938 297.273C24.9347 297.273 24.3693 297.043 23.8977 296.582C23.4318 296.116 23.2017 295.551 23.2074 294.886C23.2017 294.239 23.4318 293.685 23.8977 293.224C24.3693 292.764 24.9347 292.534 25.5938 292.534C26.2188 292.534 26.7699 292.764 27.2472 293.224C27.7301 293.685 27.9744 294.239 27.9801 294.886C27.9744 295.33 27.858 295.733 27.6307 296.097C27.4091 296.455 27.1193 296.741 26.7614 296.957C26.4034 297.168 26.0142 297.273 25.5938 297.273ZM36.5156 297.273C35.8565 297.273 35.2912 297.043 34.8196 296.582C34.3537 296.116 34.1236 295.551 34.1293 294.886C34.1236 294.239 34.3537 293.685 34.8196 293.224C35.2912 292.764 35.8565 292.534 36.5156 292.534C37.1406 292.534 37.6918 292.764 38.169 293.224C38.652 293.685 38.8963 294.239 38.902 294.886C38.8963 295.33 38.7798 295.733 38.5526 296.097C38.331 296.455 38.0412 296.741 37.6832 296.957C37.3253 297.168 36.9361 297.273 36.5156 297.273ZM47.4375 297.273C46.7784 297.273 46.2131 297.043 45.7415 296.582C45.2756 296.116 45.0455 295.551 45.0511 294.886C45.0455 294.239 45.2756 293.685 45.7415 293.224C46.2131 292.764 46.7784 292.534 47.4375 292.534C48.0625 292.534 48.6136 292.764 49.0909 293.224C49.5739 293.685 49.8182 294.239 49.8239 294.886C49.8182 295.33 49.7017 295.733 49.4744 296.097C49.2528 296.455 48.9631 296.741 48.6051 296.957C48.2472 297.168 47.858 297.273 47.4375 297.273ZM58.3594 297.273C57.7003 297.273 57.1349 297.043 56.6634 296.582C56.1974 296.116 55.9673 295.551 55.973 294.886C55.9673 294.239 56.1974 293.685 56.6634 293.224C57.1349 292.764 57.7003 292.534 58.3594 292.534C58.9844 292.534 59.5355 292.764 60.0128 293.224C60.4957 293.685 60.7401 294.239 60.7457 294.886C60.7401 295.33 60.6236 295.733 60.3963 296.097C60.1747 296.455 59.8849 296.741 59.527 296.957C59.169 297.168 58.7798 297.273 58.3594 297.273ZM69.2812 297.273C68.6222 297.273 68.0568 297.043 67.5852 296.582C67.1193 296.116 66.8892 295.551 66.8949 294.886C66.8892 294.239 67.1193 293.685 67.5852 293.224C68.0568 292.764 68.6222 292.534 69.2812 292.534C69.9062 292.534 70.4574 292.764 70.9347 293.224C71.4176 293.685 71.6619 294.239 71.6676 294.886C71.6619 295.33 71.5455 295.733 71.3182 296.097C71.0966 296.455 70.8068 296.741 70.4489 296.957C70.0909 297.168 69.7017 297.273 69.2812 297.273Z" fill="#9155F6"/>
<path d="M3.75 312.273C3.09091 312.273 2.52557 312.043 2.05398 311.582C1.58807 311.116 1.35795 310.551 1.36364 309.886C1.35795 309.239 1.58807 308.685 2.05398 308.224C2.52557 307.764 3.09091 307.534 3.75 307.534C4.375 307.534 4.92614 307.764 5.40341 308.224C5.88636 308.685 6.13068 309.239 6.13636 309.886C6.13068 310.33 6.0142 310.733 5.78693 311.097C5.56534 311.455 5.27557 311.741 4.91761 311.957C4.55966 312.168 4.17045 312.273 3.75 312.273ZM14.6719 312.273C14.0128 312.273 13.4474 312.043 12.9759 311.582C12.5099 311.116 12.2798 310.551 12.2855 309.886C12.2798 309.239 12.5099 308.685 12.9759 308.224C13.4474 307.764 14.0128 307.534 14.6719 307.534C15.2969 307.534 15.848 307.764 16.3253 308.224C16.8082 308.685 17.0526 309.239 17.0582 309.886C17.0526 310.33 16.9361 310.733 16.7088 311.097C16.4872 311.455 16.1974 311.741 15.8395 311.957C15.4815 312.168 15.0923 312.273 14.6719 312.273ZM25.5938 312.273C24.9347 312.273 24.3693 312.043 23.8977 311.582C23.4318 311.116 23.2017 310.551 23.2074 309.886C23.2017 309.239 23.4318 308.685 23.8977 308.224C24.3693 307.764 24.9347 307.534 25.5938 307.534C26.2188 307.534 26.7699 307.764 27.2472 308.224C27.7301 308.685 27.9744 309.239 27.9801 309.886C27.9744 310.33 27.858 310.733 27.6307 311.097C27.4091 311.455 27.1193 311.741 26.7614 311.957C26.4034 312.168 26.0142 312.273 25.5938 312.273ZM36.5156 312.273C35.8565 312.273 35.2912 312.043 34.8196 311.582C34.3537 311.116 34.1236 310.551 34.1293 309.886C34.1236 309.239 34.3537 308.685 34.8196 308.224C35.2912 307.764 35.8565 307.534 36.5156 307.534C37.1406 307.534 37.6918 307.764 38.169 308.224C38.652 308.685 38.8963 309.239 38.902 309.886C38.8963 310.33 38.7798 310.733 38.5526 311.097C38.331 311.455 38.0412 311.741 37.6832 311.957C37.3253 312.168 36.9361 312.273 36.5156 312.273ZM47.4375 312.273C46.7784 312.273 46.2131 312.043 45.7415 311.582C45.2756 311.116 45.0455 310.551 45.0511 309.886C45.0455 309.239 45.2756 308.685 45.7415 308.224C46.2131 307.764 46.7784 307.534 47.4375 307.534C48.0625 307.534 48.6136 307.764 49.0909 308.224C49.5739 308.685 49.8182 309.239 49.8239 309.886C49.8182 310.33 49.7017 310.733 49.4744 311.097C49.2528 311.455 48.9631 311.741 48.6051 311.957C48.2472 312.168 47.858 312.273 47.4375 312.273ZM58.3594 312.273C57.7003 312.273 57.1349 312.043 56.6634 311.582C56.1974 311.116 55.9673 310.551 55.973 309.886C55.9673 309.239 56.1974 308.685 56.6634 308.224C57.1349 307.764 57.7003 307.534 58.3594 307.534C58.9844 307.534 59.5355 307.764 60.0128 308.224C60.4957 308.685 60.7401 309.239 60.7457 309.886C60.7401 310.33 60.6236 310.733 60.3963 311.097C60.1747 311.455 59.8849 311.741 59.527 311.957C59.169 312.168 58.7798 312.273 58.3594 312.273ZM69.2812 312.273C68.6222 312.273 68.0568 312.043 67.5852 311.582C67.1193 311.116 66.8892 310.551 66.8949 309.886C66.8892 309.239 67.1193 308.685 67.5852 308.224C68.0568 307.764 68.6222 307.534 69.2812 307.534C69.9062 307.534 70.4574 307.764 70.9347 308.224C71.4176 308.685 71.6619 309.239 71.6676 309.886C71.6619 310.33 71.5455 310.733 71.3182 311.097C71.0966 311.455 70.8068 311.741 70.4489 311.957C70.0909 312.168 69.7017 312.273 69.2812 312.273Z" fill="#9155F6"/>
<path d="M3.75 327.273C3.09091 327.273 2.52557 327.043 2.05398 326.582C1.58807 326.116 1.35795 325.551 1.36364 324.886C1.35795 324.239 1.58807 323.685 2.05398 323.224C2.52557 322.764 3.09091 322.534 3.75 322.534C4.375 322.534 4.92614 322.764 5.40341 323.224C5.88636 323.685 6.13068 324.239 6.13636 324.886C6.13068 325.33 6.0142 325.733 5.78693 326.097C5.56534 326.455 5.27557 326.741 4.91761 326.957C4.55966 327.168 4.17045 327.273 3.75 327.273ZM14.6719 327.273C14.0128 327.273 13.4474 327.043 12.9759 326.582C12.5099 326.116 12.2798 325.551 12.2855 324.886C12.2798 324.239 12.5099 323.685 12.9759 323.224C13.4474 322.764 14.0128 322.534 14.6719 322.534C15.2969 322.534 15.848 322.764 16.3253 323.224C16.8082 323.685 17.0526 324.239 17.0582 324.886C17.0526 325.33 16.9361 325.733 16.7088 326.097C16.4872 326.455 16.1974 326.741 15.8395 326.957C15.4815 327.168 15.0923 327.273 14.6719 327.273ZM25.5938 327.273C24.9347 327.273 24.3693 327.043 23.8977 326.582C23.4318 326.116 23.2017 325.551 23.2074 324.886C23.2017 324.239 23.4318 323.685 23.8977 323.224C24.3693 322.764 24.9347 322.534 25.5938 322.534C26.2188 322.534 26.7699 322.764 27.2472 323.224C27.7301 323.685 27.9744 324.239 27.9801 324.886C27.9744 325.33 27.858 325.733 27.6307 326.097C27.4091 326.455 27.1193 326.741 26.7614 326.957C26.4034 327.168 26.0142 327.273 25.5938 327.273ZM36.5156 327.273C35.8565 327.273 35.2912 327.043 34.8196 326.582C34.3537 326.116 34.1236 325.551 34.1293 324.886C34.1236 324.239 34.3537 323.685 34.8196 323.224C35.2912 322.764 35.8565 322.534 36.5156 322.534C37.1406 322.534 37.6918 322.764 38.169 323.224C38.652 323.685 38.8963 324.239 38.902 324.886C38.8963 325.33 38.7798 325.733 38.5526 326.097C38.331 326.455 38.0412 326.741 37.6832 326.957C37.3253 327.168 36.9361 327.273 36.5156 327.273ZM47.4375 327.273C46.7784 327.273 46.2131 327.043 45.7415 326.582C45.2756 326.116 45.0455 325.551 45.0511 324.886C45.0455 324.239 45.2756 323.685 45.7415 323.224C46.2131 322.764 46.7784 322.534 47.4375 322.534C48.0625 322.534 48.6136 322.764 49.0909 323.224C49.5739 323.685 49.8182 324.239 49.8239 324.886C49.8182 325.33 49.7017 325.733 49.4744 326.097C49.2528 326.455 48.9631 326.741 48.6051 326.957C48.2472 327.168 47.858 327.273 47.4375 327.273ZM58.3594 327.273C57.7003 327.273 57.1349 327.043 56.6634 326.582C56.1974 326.116 55.9673 325.551 55.973 324.886C55.9673 324.239 56.1974 323.685 56.6634 323.224C57.1349 322.764 57.7003 322.534 58.3594 322.534C58.9844 322.534 59.5355 322.764 60.0128 323.224C60.4957 323.685 60.7401 324.239 60.7457 324.886C60.7401 325.33 60.6236 325.733 60.3963 326.097C60.1747 326.455 59.8849 326.741 59.527 326.957C59.169 327.168 58.7798 327.273 58.3594 327.273ZM69.2812 327.273C68.6222 327.273 68.0568 327.043 67.5852 326.582C67.1193 326.116 66.8892 325.551 66.8949 324.886C66.8892 324.239 67.1193 323.685 67.5852 323.224C68.0568 322.764 68.6222 322.534 69.2812 322.534C69.9062 322.534 70.4574 322.764 70.9347 323.224C71.4176 323.685 71.6619 324.239 71.6676 324.886C71.6619 325.33 71.5455 325.733 71.3182 326.097C71.0966 326.455 70.8068 326.741 70.4489 326.957C70.0909 327.168 69.7017 327.273 69.2812 327.273Z" fill="#9155F6"/>
</g>
<g filter="url(#filter0_b_628_3060)">
<rect width="327" height="327" fill="white" fill-opacity="0.15"/>
</g>
</g>
<defs>
<filter id="filter0_b_628_3060" x="-3" y="-3" width="333" height="333" filterUnits="userSpaceOnUse" color-interpolation-filters="sRGB">
<feFlood flood-opacity="0" result="BackgroundImageFix"/>
<feGaussianBlur in="BackgroundImageFix" stdDeviation="1.5"/>
<feComposite in2="SourceAlpha" operator="in" result="effect1_backgroundBlur_628_3060"/>
<feBlend mode="normal" in="SourceGraphic" in2="effect1_backgroundBlur_628_3060" result="shape"/>
</filter>
<clipPath id="clip0_628_3060">
<rect width="327" height="327" fill="white"/>
</clipPath>
<clipPath id="clip1_628_3060">
<rect x="254" y="188" width="70" height="70" rx="35" fill="white"/>
</clipPath>
<clipPath id="clip2_628_3060">
<rect width="73" height="79" fill="white" transform="translate(247 191)"/>
</clipPath>
<clipPath id="clip3_628_3060">
<rect x="2" y="56" width="50" height="50" rx="25" fill="white"/>
</clipPath>
<clipPath id="clip4_628_3060">
<rect width="73" height="79" fill="white" transform="translate(-2 31)"/>
</clipPath>
<clipPath id="clip5_628_3060">
<rect width="73" height="79" fill="white" transform="translate(254)"/>
</clipPath>
<clipPath id="clip6_628_3060">
<rect width="73" height="79" fill="white" transform="translate(0 248)"/>
</clipPath>
</defs>
</svg>
