<svg width="1512" height="571" viewBox="0 0 1512 571" fill="none" xmlns="http://www.w3.org/2000/svg">
<g clip-path="url(#clip0_347_362)">
<g filter="url(#filter0_d_347_362)">
<path d="M1512 236.314L1461.6 284.127C1411.2 331.939 1310.4 427.563 1209.6 451.469C1108.8 475.376 1008 427.563 907.2 371.832C806.4 315.503 705.6 252.75 604.8 268.139C504 284.127 403.2 379.751 302.4 411.576C201.6 443.999 100.8 411.128 50.4 395.738L0.00012207 379.751V571H50.4C100.8 571 201.6 571 302.4 571C403.2 571 504 571 604.8 571C705.6 571 806.4 571 907.2 571C1008 571 1108.8 571 1209.6 571C1310.4 571 1411.2 571 1461.6 571H1512V236.314Z" fill="#F2F6FF"/>
</g>
</g>
<defs>
<filter id="filter0_d_347_362" x="-99.9999" y="131.314" width="1712" height="534.686" filterUnits="userSpaceOnUse" color-interpolation-filters="sRGB">
<feFlood flood-opacity="0" result="BackgroundImageFix"/>
<feColorMatrix in="SourceAlpha" type="matrix" values="0 0 0 0 0 0 0 0 0 0 0 0 0 0 0 0 0 0 127 0" result="hardAlpha"/>
<feOffset dy="-5"/>
<feGaussianBlur stdDeviation="50"/>
<feComposite in2="hardAlpha" operator="out"/>
<feColorMatrix type="matrix" values="0 0 0 0 0 0 0 0 0 0 0 0 0 0 0 0 0 0 0.25 0"/>
<feBlend mode="normal" in2="BackgroundImageFix" result="effect1_dropShadow_347_362"/>
<feBlend mode="normal" in="SourceGraphic" in2="effect1_dropShadow_347_362" result="shape"/>
</filter>
<clipPath id="clip0_347_362">
<rect width="1512" height="571" fill="white"/>
</clipPath>
</defs>
</svg>
